# xmcd CD database file
#
# Track frame offsets:
#	150
#	18718
#	33654
#	52100
#
# Disc length: 895 seconds
#
# Revision: 0
# Processed by: cddbd v1.5.1PL2 Copyright (c) Steve Scherf et al.
# Submitted via: CDex 1.51
#
DISCID=34037d04
DTITLE=SOPHIA - エンドロール
DYEAR=2006
DGENRE=JPop
TTITLE0=エンドロール
TTITLE1=brother and sister
TTITLE2=エンドロール (instrumental)
TTITLE3=brother and sister (instrumental)
EXTD=YEAR: 2006
EXTT0=
EXTT1=
EXTT2=
EXTT3=
PLAYORDER=
